<?xml version="1.0" encoding="utf-8"?>
<!-- Generator: Adobe Illustrator 25.0.0, SVG Export Plug-In . SVG Version: 6.00 Build 0)  -->
<svg version="1.1" id="Layer_1" xmlns="http://www.w3.org/2000/svg" xmlns:xlink="http://www.w3.org/1999/xlink" x="0px" y="0px" viewBox="0 0 104.1 97" style="enable-background:new 0 0 104.1 97;" xml:space="preserve">
	<style type="text/css">
	.st0{fill:#138798;}
</style>
	<g>
		<path class="st0" d="M-311.4-154.4c0.5,0,0.8,0.3,0.8,0.8v3.4c0,0.5-0.3,0.8-0.8,0.8h-18c-0.7,0-1.2,0.2-1.5,0.5
		c-0.3,0.4-0.4,0.9-0.4,1.5v1.2c0,1.3,0.6,2,1.9,2h13.5c2.1,0,3.7,0.5,4.7,1.6c1.1,1.1,1.6,2.6,1.6,4.6v2.9c0,1.8-0.5,3.2-1.5,4.2
		c-1,1.1-2.6,1.6-4.8,1.6H-336c-0.6,0-0.8-0.3-0.8-0.8v-3.4c0-0.5,0.3-0.8,0.8-0.8h18.9c0.7,0,1.2-0.2,1.5-0.5s0.4-0.9,0.4-1.5v-1.5
		c0-1.3-0.6-2-1.9-2h-13.5c-2.1,0-3.7-0.5-4.7-1.6s-1.6-2.6-1.6-4.6v-2.6c0-1.8,0.5-3.2,1.5-4.2c1-1.1,2.6-1.6,4.8-1.6H-311.4z" />
		<path class="st0" d="M-303-146.9c0.4,0,0.6,0.2,0.6,0.6v16.5c0,0.4-0.2,0.6-0.6,0.6h-2.7c-0.4,0-0.6-0.2-0.6-0.6v-16.5
		c0-0.4,0.2-0.6,0.6-0.6H-303z" />
		<path class="st0" d="M-294.1-146.9c0.4,0,0.7,0,1,0.1c0.3,0.1,0.5,0.1,0.7,0.3s0.4,0.3,0.5,0.6c0.2,0.2,0.3,0.6,0.5,1l5.2,12.1
		c0.1,0.2,0.2,0.2,0.4,0.2h0.3c0.2,0,0.3-0.1,0.4-0.2l5.2-12.1c0.2-0.4,0.3-0.7,0.5-1c0.2-0.2,0.3-0.4,0.5-0.6s0.4-0.2,0.7-0.3
		s0.6-0.1,0.9-0.1h2.7c0.9,0,1.5,0.2,1.8,0.6c0.3,0.4,0.5,1.1,0.5,2v14.5c0,0.4-0.2,0.6-0.6,0.6h-2.6c-0.4,0-0.6-0.2-0.6-0.6V-143
		c0-0.2-0.1-0.3-0.2-0.3h-0.2c-0.2,0-0.3,0.1-0.3,0.2l-5.1,11.3c-0.2,0.5-0.4,0.8-0.6,1.1c-0.2,0.3-0.4,0.6-0.7,0.8
		c-0.2,0.2-0.5,0.3-0.8,0.4c-0.3,0.1-0.7,0.1-1.1,0.1h-1.2c-0.4,0-0.8,0-1.1-0.1c-0.3-0.1-0.6-0.2-0.8-0.4c-0.2-0.2-0.5-0.5-0.7-0.8
		c-0.2-0.3-0.4-0.7-0.6-1.1l-5.1-11.3c-0.1-0.1-0.2-0.2-0.3-0.2h-0.2c-0.1,0-0.2,0.1-0.2,0.3v13.2c0,0.4-0.2,0.6-0.6,0.6h-2.6
		c-0.4,0-0.6-0.2-0.6-0.6v-14.5c0-1,0.2-1.6,0.5-2c0.3-0.4,0.9-0.6,1.8-0.6H-294.1z" />
		<path class="st0" d="M-214-154.4c0.6,0,0.8,0.3,0.8,0.8v3.4c0,0.5-0.3,0.8-0.8,0.8h-15.7c-0.9,0-1.7,0.1-2.3,0.2
		c-0.6,0.2-1.1,0.4-1.5,0.8c-0.4,0.4-0.6,0.9-0.8,1.5c-0.1,0.6-0.2,1.4-0.2,2.4v0.4h20.3c0.5,0,0.8,0.3,0.8,0.8v2.8
		c0,0.5-0.3,0.8-0.8,0.8h-20.3v0.6c0,0.9,0.1,1.7,0.2,2.4c0.1,0.6,0.4,1.1,0.8,1.5c0.4,0.4,0.9,0.6,1.5,0.8c0.6,0.2,1.4,0.2,2.3,0.2
		h15.7c0.6,0,0.8,0.3,0.8,0.8v3.4c0,0.5-0.3,0.8-0.8,0.8h-15.8c-1.8,0-3.4-0.2-4.6-0.5c-1.3-0.3-2.3-0.9-3.1-1.6
		c-0.8-0.8-1.4-1.7-1.8-3c-0.4-1.2-0.6-2.7-0.6-4.4v-6.2c0-1.7,0.2-3.2,0.6-4.4c0.4-1.2,1-2.2,1.8-2.9c0.8-0.8,1.8-1.3,3.1-1.7
		c1.3-0.3,2.8-0.5,4.6-0.5H-214z" />
		<path class="st0" d="M-202.6-154.4c0.6,0,1.1,0,1.4,0.1c0.4,0,0.7,0.1,1,0.3s0.6,0.4,0.8,0.6c0.3,0.3,0.6,0.6,0.9,1.1l13.4,17.6
		c0.1,0.2,0.3,0.3,0.5,0.3h0.3c0.2,0,0.3-0.1,0.3-0.4v-18.8c0-0.5,0.3-0.8,0.8-0.8h3.8c0.5,0,0.8,0.3,0.8,0.8v20.7
		c0,1.5-0.3,2.5-0.8,3c-0.5,0.5-1.3,0.8-2.4,0.8h-3.1c-0.6,0-1,0-1.4-0.1c-0.4,0-0.7-0.1-1-0.3s-0.6-0.4-0.8-0.6
		c-0.3-0.3-0.6-0.7-1-1.1l-13.4-17.6c-0.1-0.2-0.3-0.3-0.5-0.3h-0.3c-0.2,0-0.3,0.1-0.3,0.4v18.8c0,0.5-0.3,0.8-0.8,0.8h-3.8
		c-0.6,0-0.8-0.3-0.8-0.8v-20.7c0-1.5,0.3-2.5,0.8-3c0.5-0.5,1.3-0.8,2.4-0.8H-202.6z" />
		<path class="st0" d="M-269.2-130l13.9-24.3c0.2-0.4,0.8-0.4,1.1,0l13.5,24.3c0.2,0.4-0.1,0.9-0.5,0.9h-19.6c-0.5,0-0.7-0.5-0.5-0.9
		l1.3-2.6c0.1-0.2,0.3-0.3,0.5-0.3l11.6,0c0.5,0,0.8-0.5,0.5-0.9l-6.8-12.3c-0.2-0.4-0.8-0.4-1.1,0l-10,16.9
		c-0.1,0.2-0.3,0.3-0.5,0.3l-2.9,0C-269.1-129.1-269.4-129.6-269.2-130z" />
	</g>
	<g>
		<g>
			<path class="st0" d="M-329.1,54.6c0.6,0,0.8,0.3,0.8,0.8v3.6c0,0.6-0.3,0.8-0.8,0.8h-19.2c-0.7,0-1.3,0.2-1.6,0.6
			c-0.3,0.4-0.5,0.9-0.5,1.6v1.3c0,1.4,0.7,2.1,2,2.1h14.3c2.2,0,3.9,0.6,5,1.7c1.1,1.1,1.7,2.8,1.7,4.9v3.1c0,1.9-0.5,3.4-1.6,4.5
			c-1.1,1.1-2.8,1.7-5.1,1.7h-21.2c-0.6,0-0.9-0.3-0.9-0.8v-3.6c0-0.6,0.3-0.8,0.9-0.8h20.1c0.7,0,1.3-0.2,1.6-0.6
			c0.3-0.4,0.5-0.9,0.5-1.6v-1.6c0-1.4-0.7-2.1-2-2.1h-14.3c-2.2,0-3.9-0.6-5-1.7c-1.1-1.1-1.7-2.8-1.7-4.9v-2.8
			c0-1.9,0.5-3.4,1.6-4.5c1.1-1.1,2.8-1.7,5.1-1.7H-329.1z" />
			<path class="st0" d="M-317.9,54.6c0.6,0,0.8,0.3,0.8,0.8v25.1c0,0.6-0.3,0.8-0.8,0.8h-4.1c-0.6,0-0.9-0.3-0.9-0.8V55.5
			c0-0.6,0.3-0.8,0.9-0.8H-317.9z" />
			<path class="st0" d="M-304.4,54.6c0.6,0,1,0,1.5,0.1c0.4,0.1,0.8,0.2,1.1,0.4c0.3,0.2,0.6,0.5,0.8,0.9c0.2,0.4,0.5,0.9,0.7,1.5
			l8,18.3c0.1,0.2,0.3,0.3,0.5,0.3h0.5c0.3,0,0.4-0.1,0.5-0.3l8-18.3c0.3-0.6,0.5-1.1,0.7-1.5c0.2-0.4,0.5-0.7,0.8-0.9
			c0.3-0.2,0.7-0.4,1.1-0.4c0.4-0.1,0.9-0.1,1.4-0.1h4.1c1.3,0,2.2,0.3,2.7,0.9c0.5,0.6,0.7,1.6,0.7,3.1v21.9c0,0.6-0.3,0.8-0.9,0.8
			h-3.9c-0.6,0-0.8-0.3-0.8-0.8v-20c0-0.3-0.1-0.4-0.3-0.4h-0.3c-0.3,0-0.4,0.1-0.5,0.3l-7.7,17.1c-0.3,0.7-0.6,1.3-0.9,1.7
			c-0.3,0.5-0.7,0.9-1,1.2c-0.4,0.3-0.8,0.5-1.3,0.6c-0.5,0.1-1,0.2-1.7,0.2h-1.8c-0.6,0-1.2-0.1-1.7-0.2c-0.5-0.1-0.9-0.3-1.3-0.6
			c-0.4-0.3-0.7-0.7-1-1.2c-0.3-0.5-0.6-1.1-0.9-1.7l-7.7-17.1c-0.1-0.2-0.2-0.3-0.5-0.3h-0.3c-0.2,0-0.3,0.1-0.3,0.4v20
			c0,0.6-0.3,0.8-0.8,0.8h-3.9c-0.6,0-0.9-0.3-0.9-0.8V58.6c0-1.5,0.2-2.5,0.7-3.1c0.5-0.6,1.4-0.9,2.7-0.9H-304.4z" />
		</g>
		<path class="st0" d="M-184.7,44.4c0.8,0,1.2,0.4,1.2,1.2v5.1c0,0.8-0.4,1.2-1.2,1.2h-23.5c-1.4,0-2.6,0.1-3.5,0.3
		c-0.9,0.2-1.7,0.6-2.2,1.2c-0.6,0.6-0.9,1.3-1.2,2.3c-0.2,1-0.3,2.1-0.3,3.5v0.5h30.4c0.8,0,1.2,0.4,1.2,1.2v4.3
		c0,0.8-0.4,1.2-1.2,1.2h-30.4v0.9c0,1.4,0.1,2.6,0.3,3.5c0.2,1,0.6,1.7,1.2,2.3c0.6,0.6,1.3,1,2.2,1.2c0.9,0.2,2.1,0.3,3.5,0.3
		h23.5c0.8,0,1.2,0.4,1.2,1.2v5.1c0,0.8-0.4,1.2-1.2,1.2h-23.7c-2.7,0-5-0.3-6.9-0.8c-1.9-0.5-3.5-1.3-4.7-2.5
		c-1.2-1.1-2.1-2.6-2.6-4.4c-0.6-1.8-0.8-4-0.8-6.6v-9.3c0-2.6,0.3-4.8,0.8-6.6c0.6-1.8,1.4-3.3,2.6-4.4c1.2-1.1,2.8-2,4.7-2.5
		c1.9-0.5,4.2-0.8,6.9-0.8H-184.7z" />
		<path class="st0" d="M-167.7,44.4c0.9,0,1.6,0,2.2,0.1c0.6,0.1,1.1,0.2,1.5,0.5c0.4,0.2,0.8,0.6,1.2,1c0.4,0.4,0.8,1,1.3,1.6
		l20,26.3c0.1,0.3,0.4,0.4,0.7,0.4h0.5c0.3,0,0.4-0.2,0.4-0.5V45.6c0-0.8,0.4-1.2,1.2-1.2h5.7c0.8,0,1.2,0.4,1.2,1.2v30.9
		c0,2.2-0.4,3.7-1.2,4.4c-0.8,0.8-2,1.2-3.7,1.2h-4.6c-0.8,0-1.5,0-2.1-0.1c-0.6-0.1-1.1-0.2-1.5-0.4c-0.4-0.2-0.9-0.5-1.3-0.9
		c-0.4-0.4-0.9-1-1.4-1.7l-20.1-26.3c-0.2-0.3-0.4-0.4-0.7-0.4h-0.5c-0.3,0-0.4,0.2-0.4,0.5v28.1c0,0.8-0.4,1.2-1.2,1.2h-5.7
		c-0.8,0-1.2-0.4-1.2-1.2V50c0-2.2,0.4-3.7,1.2-4.4c0.8-0.8,2-1.2,3.7-1.2H-167.7z" />
		<path class="st0" d="M-267.3,80.9l20.8-36.3c0.4-0.6,1.2-0.6,1.6,0l20.1,36.3c0.3,0.6-0.1,1.4-0.8,1.4h-29.3
		c-0.7,0-1.1-0.7-0.8-1.3l2-3.9c0.2-0.3,0.5-0.5,0.8-0.5l17.3-0.1c0.7,0,1.1-0.7,0.8-1.3l-10.1-18.5c-0.3-0.6-1.2-0.6-1.6,0
		l-14.9,25.2c-0.2,0.3-0.5,0.4-0.8,0.4l-4.4,0C-267.2,82.3-267.7,81.5-267.3,80.9z" />
	</g>
	<g>
		<circle class="st0" cx="-320.1" cy="38.2" r="6.1" />
		<path class="st0" d="M-325.1,49.9c-2.8-0.1-5.6-1.5-7.6-3.6c-2-2.2-3.3-5.1-3.5-8.1c-0.2-3,0.7-6.1,2.5-8.5
		c1.8-2.4,4.4-4.1,7.1-4.5c-2.2,1.7-3.9,3.7-5,5.9c-1.1,2.2-1.6,4.6-1.4,7c0.1,2.4,0.9,4.7,2.2,6.7
		C-329.4,46.8-327.5,48.5-325.1,49.9z" />
		<path class="st0" d="M-335.1,49.9c-2.8-0.1-5.6-1.5-7.6-3.6c-2-2.2-3.3-5.1-3.5-8.1c-0.2-3,0.7-6.1,2.5-8.5
		c1.8-2.4,4.4-4.1,7.1-4.5c-2.2,1.7-3.9,3.7-5,5.9c-1.1,2.2-1.6,4.6-1.4,7c0.1,2.4,0.9,4.7,2.2,6.7
		C-339.4,46.8-337.5,48.5-335.1,49.9z" />
		<path class="st0" d="M-345.8,49.9c-2.8-0.1-5.6-1.5-7.6-3.6c-2-2.2-3.3-5.1-3.5-8.1c-0.2-3,0.7-6.1,2.5-8.5
		c1.8-2.4,4.4-4.1,7.1-4.5c-2.2,1.7-3.9,3.7-5,5.9c-1.1,2.2-1.6,4.6-1.4,7c0.1,2.4,0.9,4.7,2.2,6.7
		C-350.1,46.8-348.2,48.5-345.8,49.9z" />
		<path class="st0" d="M-315.7,49.9c2.4-1.4,4.3-3.1,5.6-5.2c1.3-2.1,2.1-4.4,2.2-6.7c0.1-2.4-0.3-4.8-1.4-7c-1.1-2.2-2.8-4.2-5-5.9
		c2.8,0.4,5.4,2.1,7.1,4.5c1.8,2.4,2.7,5.5,2.5,8.5c-0.2,3-1.4,6-3.5,8.1C-310.1,48.4-312.9,49.8-315.7,49.9z" />
		<path class="st0" d="M-305.7,49.9c2.4-1.4,4.3-3.1,5.6-5.2c1.3-2.1,2.1-4.4,2.2-6.7c0.1-2.4-0.3-4.8-1.4-7c-1.1-2.2-2.8-4.2-5-5.9
		c2.8,0.4,5.4,2.1,7.1,4.5c1.8,2.4,2.7,5.5,2.5,8.5c-0.2,3-1.4,6-3.5,8.1C-300.1,48.4-302.9,49.8-305.7,49.9z" />
		<path class="st0" d="M-295,49.9c2.4-1.4,4.3-3.1,5.6-5.2c1.3-2.1,2.1-4.4,2.2-6.7c0.1-2.4-0.3-4.8-1.4-7c-1.1-2.2-2.8-4.2-5-5.9
		c2.8,0.4,5.4,2.1,7.1,4.5c1.8,2.4,2.7,5.5,2.5,8.5c-0.2,3-1.4,6-3.5,8.1C-289.4,48.4-292.2,49.8-295,49.9z" />
	</g>
	<g>
		<circle class="st0" cx="-303.6" cy="-161.3" r="3.5" />
		<path class="st0" d="M-308.5-155.7c-1.5-0.5-2.8-1.8-3.6-3.3c-0.8-1.5-0.9-3.4-0.5-5.1c0.4-1.7,1.4-3.3,2.9-4.3
		c1.4-1,3.1-1.5,4.7-1.3c-1.5,0.5-2.8,1.4-3.8,2.4c-1,1-1.7,2.3-2,3.6c-0.3,1.3-0.3,2.8,0.1,4.1
		C-310.3-158.2-309.5-156.9-308.5-155.7z" />
		<path class="st0" d="M-314-157.4c-1.5-0.5-2.8-1.8-3.6-3.3c-0.8-1.5-0.9-3.4-0.5-5.1c0.4-1.7,1.4-3.3,2.9-4.3
		c1.4-1,3.1-1.5,4.7-1.3c-1.5,0.5-2.8,1.4-3.8,2.4c-1,1-1.7,2.3-2,3.6c-0.3,1.3-0.3,2.8,0.1,4.1C-315.8-159.9-315.1-158.6-314-157.4
		z" />
		<path class="st0" d="M-319.9-159.3c-1.5-0.5-2.8-1.8-3.6-3.3c-0.8-1.5-0.9-3.4-0.5-5.1c0.4-1.7,1.4-3.3,2.9-4.3
		c1.4-1,3.1-1.5,4.7-1.3c-1.5,0.5-2.8,1.4-3.8,2.4c-1,1-1.7,2.3-2,3.6c-0.3,1.3-0.3,2.8,0.1,4.1C-321.7-161.8-321-160.5-319.9-159.3
		z" />
		<path class="st0" d="M-303.2-154c1.6-0.4,2.9-1,4-1.9c1.1-0.9,1.9-2.1,2.4-3.4c0.5-1.3,0.6-2.7,0.4-4.1c-0.2-1.4-0.8-2.8-1.7-4.1
		c1.5,0.7,2.6,2.1,3.2,3.7c0.6,1.6,0.5,3.5-0.1,5.1c-0.6,1.6-1.8,3.1-3.4,3.9C-299.9-153.9-301.7-153.6-303.2-154z" />
		<path class="st0" d="M-297.7-152.3c1.6-0.4,2.9-1,4-1.9c1.1-0.9,1.9-2.1,2.4-3.4c0.5-1.3,0.6-2.7,0.4-4.1c-0.2-1.4-0.8-2.8-1.7-4.1
		c1.5,0.7,2.6,2.1,3.2,3.7c0.6,1.6,0.5,3.5-0.1,5.1c-0.6,1.6-1.8,3.1-3.4,3.9C-294.3-152.2-296.1-151.9-297.7-152.3z" />
		<path class="st0" d="M-291.8-150.5c1.6-0.4,2.9-1,4-1.9c1.1-0.9,1.9-2.1,2.4-3.4c0.5-1.3,0.6-2.7,0.4-4.1c-0.2-1.4-0.8-2.8-1.7-4.1
		c1.5,0.7,2.6,2.1,3.2,3.7c0.6,1.6,0.5,3.5-0.1,5.1c-0.6,1.6-1.8,3.1-3.4,3.9C-288.4-150.3-290.2-150-291.8-150.5z" />
	</g>
	<path class="st0" d="M41.6-163.7c0.5,0,0.8,0.3,0.8,0.8v3.4c0,0.5-0.3,0.8-0.8,0.8h-18c-0.7,0-1.2,0.2-1.5,0.5
	c-0.3,0.4-0.4,0.9-0.4,1.5v1.2c0,1.3,0.6,2,1.9,2H37c2.1,0,3.7,0.5,4.7,1.6c1.1,1.1,1.6,2.6,1.6,4.6v2.9c0,1.8-0.5,3.2-1.5,4.2
	c-1,1.1-2.6,1.6-4.8,1.6H17c-0.6,0-0.8-0.3-0.8-0.8v-3.4c0-0.5,0.3-0.8,0.8-0.8h18.9c0.7,0,1.2-0.2,1.5-0.5s0.4-0.9,0.4-1.5v-1.5
	c0-1.3-0.6-2-1.9-2H22.4c-2.1,0-3.7-0.5-4.7-1.6s-1.6-2.6-1.6-4.6v-2.6c0-1.8,0.5-3.2,1.5-4.2c1-1.1,2.6-1.6,4.8-1.6H41.6z" />
	<path class="st0" d="M50-156.2c0.4,0,0.6,0.2,0.6,0.6v16.5c0,0.4-0.2,0.6-0.6,0.6h-2.7c-0.4,0-0.6-0.2-0.6-0.6v-16.5
	c0-0.4,0.2-0.6,0.6-0.6H50z" />
	<path class="st0" d="M58.9-156.2c0.4,0,0.7,0,1,0.1c0.3,0.1,0.5,0.1,0.7,0.3s0.4,0.3,0.5,0.6c0.2,0.2,0.3,0.6,0.5,1l5.2,12.1
	c0.1,0.2,0.2,0.2,0.4,0.2h0.3c0.2,0,0.3-0.1,0.4-0.2l5.2-12.1c0.2-0.4,0.3-0.7,0.5-1c0.2-0.2,0.3-0.4,0.5-0.6s0.4-0.2,0.7-0.3
	s0.6-0.1,0.9-0.1h2.7c0.9,0,1.5,0.2,1.8,0.6c0.3,0.4,0.5,1.1,0.5,2v14.5c0,0.4-0.2,0.6-0.6,0.6h-2.6c-0.4,0-0.6-0.2-0.6-0.6v-13.2
	c0-0.2-0.1-0.3-0.2-0.3h-0.2c-0.2,0-0.3,0.1-0.3,0.2L71.1-141c-0.2,0.5-0.4,0.8-0.6,1.1c-0.2,0.3-0.4,0.6-0.7,0.8
	c-0.2,0.2-0.5,0.3-0.8,0.4c-0.3,0.1-0.7,0.1-1.1,0.1h-1.2c-0.4,0-0.8,0-1.1-0.1c-0.3-0.1-0.6-0.2-0.8-0.4c-0.2-0.2-0.5-0.5-0.7-0.8
	c-0.2-0.3-0.4-0.7-0.6-1.1l-5.1-11.3c-0.1-0.1-0.2-0.2-0.3-0.2h-0.2c-0.1,0-0.2,0.1-0.2,0.3v13.2c0,0.4-0.2,0.6-0.6,0.6h-2.6
	c-0.4,0-0.6-0.2-0.6-0.6v-14.5c0-1,0.2-1.6,0.5-2c0.3-0.4,0.9-0.6,1.8-0.6H58.9z" />
	<g>
		<path class="st0" d="M57-134.1c0.6,0,0.8,0.3,0.8,0.8v3.4c0,0.5-0.3,0.8-0.8,0.8H41.3c-0.9,0-1.7,0.1-2.3,0.2
		c-0.6,0.2-1.1,0.4-1.5,0.8c-0.4,0.4-0.6,0.9-0.8,1.5c-0.1,0.6-0.2,1.4-0.2,2.4v0.4h20.3c0.5,0,0.8,0.3,0.8,0.8v2.8
		c0,0.5-0.3,0.8-0.8,0.8H36.5v0.6c0,0.9,0.1,1.7,0.2,2.4c0.1,0.6,0.4,1.1,0.8,1.5c0.4,0.4,0.9,0.6,1.5,0.8c0.6,0.2,1.4,0.2,2.3,0.2
		H57c0.6,0,0.8,0.3,0.8,0.8v3.4c0,0.5-0.3,0.8-0.8,0.8H41.2c-1.8,0-3.4-0.2-4.6-0.5c-1.3-0.3-2.3-0.9-3.1-1.6
		c-0.8-0.8-1.4-1.7-1.8-3c-0.4-1.2-0.6-2.7-0.6-4.4v-6.2c0-1.7,0.2-3.2,0.6-4.4c0.4-1.2,1-2.2,1.8-2.9c0.8-0.8,1.8-1.3,3.1-1.7
		c1.3-0.3,2.8-0.5,4.6-0.5H57z" />
		<path class="st0" d="M68.4-134.1c0.6,0,1.1,0,1.4,0.1c0.4,0,0.7,0.1,1,0.3s0.6,0.4,0.8,0.6c0.3,0.3,0.6,0.6,0.9,1.1L86-114.4
		c0.1,0.2,0.3,0.3,0.5,0.3h0.3c0.2,0,0.3-0.1,0.3-0.4v-18.8c0-0.5,0.3-0.8,0.8-0.8h3.8c0.5,0,0.8,0.3,0.8,0.8v20.7
		c0,1.5-0.3,2.5-0.8,3c-0.5,0.5-1.3,0.8-2.4,0.8h-3.1c-0.6,0-1,0-1.4-0.1c-0.4,0-0.7-0.1-1-0.3s-0.6-0.4-0.8-0.6
		c-0.3-0.3-0.6-0.7-1-1.1l-13.4-17.6c-0.1-0.2-0.3-0.3-0.5-0.3h-0.3c-0.2,0-0.3,0.1-0.3,0.4v18.8c0,0.5-0.3,0.8-0.8,0.8h-3.8
		c-0.6,0-0.8-0.3-0.8-0.8v-20.7c0-1.5,0.3-2.5,0.8-3c0.5-0.5,1.3-0.8,2.4-0.8H68.4z" />
		<path class="st0" d="M1.8-109.7l13.9-24.3c0.2-0.4,0.8-0.4,1.1,0l13.5,24.3c0.2,0.4-0.1,0.9-0.5,0.9H10.1c-0.5,0-0.7-0.5-0.5-0.9
		l1.3-2.6c0.1-0.2,0.3-0.3,0.5-0.3l11.6,0c0.5,0,0.8-0.5,0.5-0.9l-6.8-12.3c-0.2-0.4-0.8-0.4-1.1,0L5.8-109
		c-0.1,0.2-0.3,0.3-0.5,0.3l-2.9,0C1.8-108.7,1.5-109.2,1.8-109.7z" />
	</g>
	<path class="st0" d="M31,35.5c0.6,0,0.8,0.3,0.8,0.8V40c0,0.6-0.3,0.8-0.8,0.8H11.8c-0.7,0-1.3,0.2-1.6,0.6C10,41.8,9.8,42.3,9.8,43
	v1.3c0,1.4,0.7,2.1,2,2.1h14.3c2.2,0,3.9,0.6,5,1.7c1.1,1.1,1.7,2.8,1.7,4.9v3.1c0,1.9-0.5,3.4-1.6,4.5c-1.1,1.1-2.8,1.7-5.1,1.7
	H4.9C4.3,62.3,4,62,4,61.5v-3.6C4,57.3,4.3,57,4.9,57h20.1c0.7,0,1.3-0.2,1.6-0.6c0.3-0.4,0.5-0.9,0.5-1.6v-1.6c0-1.4-0.7-2.1-2-2.1
	H10.6c-2.2,0-3.9-0.6-5-1.7C4.5,48.3,4,46.7,4,44.6v-2.8c0-1.9,0.5-3.4,1.6-4.5c1.1-1.1,2.8-1.7,5.1-1.7H31z" />
	<path class="st0" d="M47.4,35.5c0.6,0,0.8,0.3,0.8,0.8v25.1c0,0.6-0.3,0.8-0.8,0.8h-4.1c-0.6,0-0.9-0.3-0.9-0.8V36.4
	c0-0.6,0.3-0.8,0.9-0.8H47.4z" />
	<path class="st0" d="M65.5,35.5c0.6,0,1,0,1.5,0.1c0.4,0.1,0.8,0.2,1.1,0.4c0.3,0.2,0.6,0.5,0.8,0.9c0.2,0.4,0.5,0.9,0.7,1.5l8,18.3
	c0.1,0.2,0.3,0.3,0.5,0.3h0.5c0.3,0,0.4-0.1,0.5-0.3l8-18.3c0.3-0.6,0.5-1.1,0.7-1.5c0.2-0.4,0.5-0.7,0.8-0.9
	c0.3-0.2,0.7-0.4,1.1-0.4c0.4-0.1,0.9-0.1,1.4-0.1h4.1c1.3,0,2.2,0.3,2.7,0.9c0.5,0.6,0.7,1.6,0.7,3.1v21.9c0,0.6-0.3,0.8-0.9,0.8
	h-3.9c-0.6,0-0.8-0.3-0.8-0.8v-20c0-0.3-0.1-0.4-0.3-0.4h-0.3c-0.3,0-0.4,0.1-0.5,0.3L84,58.6c-0.3,0.7-0.6,1.3-0.9,1.7
	c-0.3,0.5-0.7,0.9-1,1.2c-0.4,0.3-0.8,0.5-1.3,0.6c-0.5,0.1-1,0.2-1.7,0.2h-1.8c-0.6,0-1.2-0.1-1.7-0.2c-0.5-0.1-0.9-0.3-1.3-0.6
	c-0.4-0.3-0.7-0.7-1-1.2c-0.3-0.5-0.6-1.1-0.9-1.7l-7.7-17.1c-0.1-0.2-0.2-0.3-0.5-0.3h-0.3c-0.2,0-0.3,0.1-0.3,0.4v20
	c0,0.6-0.3,0.8-0.8,0.8h-3.9c-0.6,0-0.9-0.3-0.9-0.8V39.5c0-1.5,0.2-2.5,0.7-3.1c0.5-0.6,1.4-0.9,2.7-0.9H65.5z" />
	<path class="st0" d="M61.6,66c0.6,0,0.9,0.3,0.9,0.8v3.6c0,0.5-0.3,0.8-0.9,0.8H45.3c-1,0-1.8,0.1-2.4,0.2c-0.6,0.2-1.2,0.4-1.5,0.8
	c-0.4,0.4-0.7,0.9-0.8,1.6c-0.2,0.7-0.2,1.5-0.2,2.5v0.4h21.2c0.5,0,0.8,0.3,0.8,0.8v3c0,0.6-0.3,0.8-0.8,0.8H40.3v0.6
	c0,1,0.1,1.8,0.2,2.5c0.2,0.7,0.4,1.2,0.8,1.6c0.4,0.4,0.9,0.7,1.5,0.8c0.6,0.2,1.4,0.2,2.4,0.2h16.4c0.6,0,0.9,0.3,0.9,0.8v3.6
	c0,0.6-0.3,0.8-0.9,0.8H45.1c-1.9,0-3.5-0.2-4.8-0.5c-1.3-0.3-2.4-0.9-3.2-1.7c-0.8-0.8-1.5-1.8-1.8-3.1c-0.4-1.3-0.6-2.8-0.6-4.6
	v-6.5c0-1.8,0.2-3.3,0.6-4.6c0.4-1.2,1-2.3,1.8-3.1c0.8-0.8,1.9-1.4,3.2-1.7c1.3-0.4,2.9-0.5,4.8-0.5H61.6z" />
	<path class="st0" d="M73.5,66c0.6,0,1.1,0,1.5,0.1c0.4,0.1,0.7,0.2,1,0.3c0.3,0.2,0.6,0.4,0.9,0.7c0.3,0.3,0.6,0.7,0.9,1.1l14,18.3
	c0.1,0.2,0.3,0.3,0.5,0.3h0.3c0.2,0,0.3-0.1,0.3-0.4V57.8c0-0.5,0.3-0.8,0.8-0.8h3.9c0.5,0,0.8,0.3,0.8,0.8v30.5
	c0,1.5-0.3,2.6-0.8,3.1c-0.6,0.5-1.4,0.8-2.6,0.8h-3.2c-0.6,0-1.1,0-1.4-0.1c-0.4,0-0.7-0.2-1-0.3s-0.6-0.4-0.9-0.7
	c-0.3-0.3-0.6-0.7-1-1.2l-14-18.3c-0.2-0.2-0.3-0.3-0.5-0.3h-0.3c-0.2,0-0.3,0.1-0.3,0.4v19.6c0,0.6-0.3,0.8-0.8,0.8h-3.9
	c-0.6,0-0.9-0.3-0.9-0.8V69.9c0-1.5,0.3-2.6,0.8-3.1c0.5-0.5,1.4-0.8,2.6-0.8H73.5z" />
	<path class="st0" d="M4.1,91.4l14.5-25.3c0.2-0.4,0.9-0.4,1.1,0l14,25.3c0.2,0.4-0.1,0.9-0.6,0.9H12.8c-0.5,0-0.8-0.5-0.6-0.9
	l1.4-2.8c0.1-0.2,0.3-0.3,0.6-0.3l12,0c0.5,0,0.8-0.5,0.6-0.9l-7-12.9c-0.2-0.4-0.9-0.4-1.1,0L8.2,92c-0.1,0.2-0.3,0.3-0.5,0.3l-3,0
	C4.2,92.3,3.9,91.8,4.1,91.4z" />
	<circle class="st0" cx="45.2" cy="19" r="4.9" />
	<path class="st0" d="M40.1,30.9c-2.8-0.1-5.6-1.5-7.6-3.6c-2-2.2-3.3-5.1-3.5-8.1c-0.2-3,0.7-6.1,2.5-8.5c1.8-2.4,4.4-4.1,7.1-4.5
	c-2.2,1.7-3.9,3.7-5,5.9c-1.1,2.2-1.6,4.6-1.4,7c0.1,2.4,0.9,4.7,2.2,6.7C35.8,27.7,37.7,29.5,40.1,30.9z" />
	<path class="st0" d="M30.1,30.9c-2.8-0.1-5.6-1.5-7.6-3.6c-2-2.2-3.3-5.1-3.5-8.1c-0.2-3,0.7-6.1,2.5-8.5c1.8-2.4,4.4-4.1,7.1-4.5
	c-2.2,1.7-3.9,3.7-5,5.9c-1.1,2.2-1.6,4.6-1.4,7c0.1,2.4,0.9,4.7,2.2,6.7C25.8,27.7,27.7,29.5,30.1,30.9z" />
	<path class="st0" d="M19.5,30.9c-2.8-0.1-5.6-1.5-7.6-3.6c-2-2.2-3.3-5.1-3.5-8.1c-0.2-3,0.7-6.1,2.5-8.5c1.8-2.4,4.4-4.1,7.1-4.5
	c-2.2,1.7-3.9,3.7-5,5.9c-1.1,2.2-1.6,4.6-1.4,7c0.1,2.4,0.9,4.7,2.2,6.7C15.1,27.7,17.1,29.5,19.5,30.9z" />
	<path class="st0" d="M49.6,30.9c2.4-1.4,4.3-3.1,5.6-5.2c1.3-2.1,2.1-4.4,2.2-6.7c0.1-2.4-0.3-4.8-1.4-7c-1.1-2.2-2.8-4.2-5-5.9
	c2.8,0.4,5.4,2.1,7.1,4.5c1.8,2.4,2.7,5.5,2.5,8.5c-0.2,3-1.4,6-3.5,8.1C55.1,29.4,52.3,30.8,49.6,30.9z" />
	<path class="st0" d="M59.6,30.9c2.4-1.4,4.3-3.1,5.6-5.2c1.3-2.1,2.1-4.4,2.2-6.7c0.1-2.4-0.3-4.8-1.4-7c-1.1-2.2-2.8-4.2-5-5.9
	c2.8,0.4,5.4,2.1,7.1,4.5c1.8,2.4,2.7,5.5,2.5,8.5c-0.2,3-1.4,6-3.5,8.1C65.1,29.4,62.4,30.8,59.6,30.9z" />
	<path class="st0" d="M70.2,30.9c2.4-1.4,4.3-3.1,5.6-5.2c1.3-2.1,2.1-4.4,2.2-6.7c0.1-2.4-0.3-4.8-1.4-7c-1.1-2.2-2.8-4.2-5-5.9
	c2.8,0.4,5.4,2.1,7.1,4.5c1.8,2.4,2.7,5.5,2.5,8.5c-0.2,3-1.4,6-3.5,8.1C75.8,29.4,73,30.8,70.2,30.9z" />
	<g>
		<circle class="st0" cx="49.4" cy="-170.6" r="3.5" />
		<path class="st0" d="M44.5-165c-1.5-0.5-2.8-1.8-3.6-3.3c-0.8-1.5-0.9-3.4-0.5-5.1c0.4-1.7,1.4-3.3,2.9-4.3c1.4-1,3.1-1.5,4.7-1.3
		c-1.5,0.5-2.8,1.4-3.8,2.4c-1,1-1.7,2.3-2,3.6c-0.3,1.3-0.3,2.8,0.1,4.1C42.7-167.4,43.4-166.1,44.5-165z" />
		<path class="st0" d="M39-166.7c-1.5-0.5-2.8-1.8-3.6-3.3c-0.8-1.5-0.9-3.4-0.5-5.1c0.4-1.7,1.4-3.3,2.9-4.3c1.4-1,3.1-1.5,4.7-1.3
		c-1.5,0.5-2.8,1.4-3.8,2.4c-1,1-1.7,2.3-2,3.6c-0.3,1.3-0.3,2.8,0.1,4.1C37.1-169.2,37.9-167.9,39-166.7z" />
		<path class="st0" d="M33.1-168.5c-1.5-0.5-2.8-1.8-3.6-3.3c-0.8-1.5-0.9-3.4-0.5-5.1c0.4-1.7,1.4-3.3,2.9-4.3
		c1.4-1,3.1-1.5,4.7-1.3c-1.5,0.5-2.8,1.4-3.8,2.4c-1,1-1.7,2.3-2,3.6c-0.3,1.3-0.3,2.8,0.1,4.1C31.2-171,32-169.7,33.1-168.5z" />
		<path class="st0" d="M49.8-163.3c1.6-0.4,2.9-1,4-1.9c1.1-0.9,1.9-2.1,2.4-3.4c0.5-1.3,0.6-2.7,0.4-4.1c-0.2-1.4-0.8-2.8-1.7-4.1
		c1.5,0.7,2.6,2.1,3.2,3.7c0.6,1.6,0.5,3.5-0.1,5.1c-0.6,1.6-1.8,3.1-3.4,3.9C53.1-163.2,51.3-162.9,49.8-163.3z" />
		<path class="st0" d="M55.3-161.6c1.6-0.4,2.9-1,4-1.9c1.1-0.9,1.9-2.1,2.4-3.4c0.5-1.3,0.6-2.7,0.4-4.1c-0.2-1.4-0.8-2.8-1.7-4.1
		c1.5,0.7,2.6,2.1,3.2,3.7c0.6,1.6,0.5,3.5-0.1,5.1c-0.6,1.6-1.8,3.1-3.4,3.9C58.7-161.4,56.9-161.1,55.3-161.6z" />
		<path class="st0" d="M61.2-159.7c1.6-0.4,2.9-1,4-1.9c1.1-0.9,1.9-2.1,2.4-3.4c0.5-1.3,0.6-2.7,0.4-4.1c-0.2-1.4-0.8-2.8-1.7-4.1
		c1.5,0.7,2.6,2.1,3.2,3.7c0.6,1.6,0.5,3.5-0.1,5.1c-0.6,1.6-1.8,3.1-3.4,3.9C64.6-159.6,62.8-159.3,61.2-159.7z" />
	</g>
</svg>
